<!--?xml version="1.0" standalone="no"?-->
              <svg id="sw-js-blob-svg" viewBox="0 0 100 100" xmlns="http://www.w3.org/2000/svg" version="1.1">
                    <defs> 
                        <linearGradient id="sw-gradient" x1="0" x2="1" y1="1" y2="0">
                            <stop id="stop1" stop-color="rgba(72, 202, 228, 1)" offset="0%"></stop>
                            <stop id="stop2" stop-color="rgba(72, 202, 228, 1)" offset="100%"></stop>
                        </linearGradient>
                    </defs>
                <path fill="url(#sw-gradient)" d="M22.3,-25.9C30.2,-19.9,38.8,-14.1,41.4,-6.3C44,1.5,40.5,11.4,34.9,19.4C29.4,27.4,21.9,33.4,13.2,36.8C4.5,40.3,-5.4,41.2,-12.3,37.2C-19.2,33.2,-23,24.4,-26,16.4C-29,8.4,-31.1,1.3,-30.6,-6.1C-30.2,-13.4,-27.1,-21,-21.5,-27.4C-16,-33.9,-8,-39.2,-0.4,-38.7C7.2,-38.3,14.4,-32,22.3,-25.9Z" width="100%" height="100%" transform="translate(50 50)" stroke-width="0" style="transition: 0.3s;"></path>
              </svg>